<svg xmlns="http://www.w3.org/2000/svg" xmlns:xlink="http://www.w3.org/1999/xlink" width="410" height="259" viewBox="0 0 410 259">
  <defs>
    <path id="img-lockwise-b" d="M272.482357,61.116 L2.88654161,61.116 C1.39381175,61.116 0.184,59.769 0.184,58.107 L0.184,3.008 C0.184,1.346 1.39381175,4.54747351e-13 2.88654161,4.54747351e-13 L272.482357,4.54747351e-13 C273.974188,4.54747351e-13 275.184,1.346 275.184,3.008 L275.184,58.107 C275.184,59.769 273.974188,61.116 272.482357,61.116"/>
    <filter id="img-lockwise-a" width="109.5%" height="142.5%" x="-4.7%" y="-18%" filterUnits="objectBoundingBox">
      <feOffset dy="2" in="SourceAlpha" result="shadowOffsetOuter1"/>
      <feGaussianBlur in="shadowOffsetOuter1" result="shadowBlurOuter1" stdDeviation="4"/>
      <feColorMatrix in="shadowBlurOuter1" values="0 0 0 0 0.125490196   0 0 0 0 0.0705882353   0 0 0 0 0.22745098  0 0 0 0.24 0"/>
    </filter>
    <polygon id="img-lockwise-c" points="0 .881 275 .881 275 61.881 0 61.881"/>
    <filter id="img-lockwise-d" width="109.5%" height="142.6%" x="-4.7%" y="-18%" filterUnits="objectBoundingBox">
      <feOffset dy="2" in="SourceAlpha" result="shadowOffsetOuter1"/>
      <feGaussianBlur in="shadowOffsetOuter1" result="shadowBlurOuter1" stdDeviation="4"/>
      <feColorMatrix in="shadowBlurOuter1" values="0 0 0 0 0.125490196   0 0 0 0 0.0705882353   0 0 0 0 0.22745098  0 0 0 0.24 0"/>
    </filter>
  </defs>
  <g fill="none" fill-rule="evenodd" transform="translate(-1)">
    <path fill="#F0F0F4" d="M0.994574519,241 L1,42.1144612 C1,18.8561201 19.822108,0 43.0405028,0 L283.964923,0 C307.183317,0 326.005425,18.8561201 326.005425,42.1144612 L326,241"/>
    <rect width="71.231" height="6.194" x="127.977" y="18.582" fill="#D1D1D7" fill-opacity=".6" rx="2.85"/>
    <path fill="#FFF" d="M302.049992,41.2928989 C304.018292,41.2928989 305.613992,43.1266213 305.613992,45.3894919 L305.199992,244.292899 L23.4819994,244.292899 L23.8959994,45.3894919 C23.8959994,43.1266213 25.4916994,41.2928989 27.4599993,41.2928989 L302.049992,41.2928989 Z"/>
    <path fill="#D1D1D7" d="M302.049992,41.2928989 C304.018292,41.2928989 305.613992,42.9695989 305.613992,45.0386988 L305.613992,56.1518985 L23.8959994,56.1518985 L23.8959994,45.0386988 C23.8959994,42.9695989 25.4916994,41.2928989 27.4599993,41.2928989 L302.049992,41.2928989 Z"/>
    <g transform="translate(45.1 112.393)">
      <text fill="#F0F0F4" font-family="Inter-Regular, Inter" font-size="10.8">
        <tspan x="0" y="13">username</tspan>
      </text>
      <text fill="#F0F0F4" font-family="Inter-Regular, Inter" font-size="10.8">
        <tspan x="0" y="53.5">pasword</tspan>
      </text>
      <path stroke="#F0F0F4" stroke-linecap="square" stroke-width=".9" d="M.449999988 22.0499994L239.849994 22.0499994M.449999988 62.5499983L239.849994 62.5499983"/>
    </g>
    <path fill="#F0F0F4" d="M11.0697592,26 C23.5226392,26 30.3338392,15.9962435 30.3338392,7.32103089 C30.3338392,7.03689144 30.3338392,6.7540319 30.3140392,6.47245226 C31.6390966,5.54312537 32.7829084,4.39244832 33.6919192,3.07429802 C32.4562395,3.6052059 31.1454138,3.95337512 29.8031992,4.10718332 C31.2165813,3.28673969 32.2744022,1.99632412 32.7797992,0.476085929 C31.4507671,1.24077343 29.996772,1.77968704 28.4805592,2.06957069 C26.3818685,-0.0942481468 23.0470687,-0.623850414 20.3461242,0.777734421 C17.6451797,2.17931926 16.2498022,5.16352386 16.9424392,8.05697767 C11.4986216,7.79235621 6.42662722,5.2991909 2.98871919,1.19795372 C1.19170123,4.19760203 2.1095832,8.03503939 5.08487919,9.96147993 C4.00741758,9.93051583 2.95344796,9.64868742 2.01191919,9.13977936 C2.01191919,9.16665741 2.01191919,9.19481538 2.01191919,9.22297334 C2.01280113,12.3479863 4.28463116,15.0395577 7.44371919,15.6583479 C6.44694706,15.9219321 5.40112557,15.9604628 4.38659919,15.7709798 C5.27357046,18.4452476 7.81539761,20.2772572 10.7120392,20.3300101 C8.31456944,22.1569908 5.35291775,23.1487857 2.30363919,23.1458064 C1.7649519,23.1448037 1.22678856,23.1131784 0.691919192,23.0510933 C3.78815864,24.9777079 7.39080488,25.9996377 11.0697592,25.9948804" transform="translate(146.308 71)"/>
    <g transform="translate(128 114.008)">
      <use fill="#000" filter="url(#img-lockwise-a)" xlink:href="#img-lockwise-b"/>
      <use fill="#FFF" xlink:href="#img-lockwise-b"/>
      <path fill="#000" d="M253.9768,37.3484 L253.9768,30.1484 L256.0338,30.1484 L256.0338,32.7194 C256.0338,33.0034 256.2638,33.2344 256.5478,33.2344 L259.1198,33.2344 L259.1198,37.3484 L253.9768,37.3484 Z M251.9188,30.1484 L251.9188,32.2044 L248.8328,32.2044 L248.8328,25.0054 L250.8908,25.0054 L250.8908,27.5774 C250.8908,27.8614 251.1218,28.0904 251.4048,28.0904 L253.9768,28.0904 C252.8398,28.0904 251.9188,29.0124 251.9188,30.1484 L251.9188,30.1484 Z M253.5508,27.0624 L251.9188,27.0624 L251.9188,25.4314 L253.5508,27.0624 Z M258.6938,32.2044 L257.0618,32.2044 L257.0618,30.5744 L258.6938,32.2044 Z M260.8748,31.4784 L257.7898,28.3924 C257.5968,28.1994 257.3348,28.0904 257.0618,28.0904 L256.0338,28.0904 L256.0338,27.0624 C256.0338,26.7894 255.9248,26.5284 255.7328,26.3344 L252.6468,23.2494 C252.4538,23.0564 252.1918,22.9484 251.9188,22.9484 L248.8328,22.9484 C247.6978,22.9484 246.7768,23.8694 246.7768,25.0054 L246.7768,32.2044 C246.7768,33.3414 247.6978,34.2624 248.8328,34.2624 L251.9188,34.2624 L251.9188,37.3484 C251.9188,38.4844 252.8398,39.4054 253.9768,39.4054 L259.1198,39.4054 C260.2548,39.4054 261.1758,38.4844 261.1758,37.3484 L261.1758,32.2044 C261.1758,31.9324 261.0678,31.6704 260.8748,31.4784 L260.8748,31.4784 Z"/>
      <path fill="#20123A" d="M84.1673,35.3972 L85.4443,35.3972 L85.4443,36.7792 C85.5493,36.5102 85.8063,36.1822 86.2143,35.7962 C86.6223,35.4112 87.0933,35.2172 87.6263,35.2172 L87.6993,35.2212 L88.0593,35.2542 L88.0593,36.6742 C87.9803,36.6602 87.9063,36.6492 87.8393,36.6442 C87.7713,36.6392 87.6983,36.6372 87.6183,36.6372 C86.9403,36.6372 86.4213,36.8552 86.0573,37.2912 C85.6933,37.7262 85.5123,38.2282 85.5123,38.7962 L85.5123,43.3982 L84.1673,43.3982 L84.1673,35.3972 Z M81.0973,38.7582 C81.0423,38.1762 80.9143,37.7102 80.7153,37.3622 C80.3473,36.7142 79.7313,36.3902 78.8703,36.3902 C78.2533,36.3902 77.7343,36.6132 77.3163,37.0592 C76.8973,37.5042 76.6763,38.0712 76.6513,38.7582 L81.0973,38.7582 Z M78.9523,35.2172 C79.5203,35.2172 80.0703,35.3512 80.6043,35.6172 C81.1363,35.8832 81.5423,36.2282 81.8213,36.6522 C82.0453,36.9882 82.2073,37.3712 82.3073,37.8002 L82.3583,38.0642 C82.4383,38.4322 82.4793,39.0202 82.4793,39.8272 L76.6143,39.8272 C76.6393,40.6392 76.8303,41.2902 77.1893,41.7812 C77.5483,42.2712 78.1043,42.5162 78.8553,42.5162 C79.5583,42.5162 80.1173,42.2852 80.5363,41.8222 C80.7753,41.5522 80.9443,41.2422 81.0443,40.8882 L82.3663,40.8882 C82.3313,41.1812 82.2163,41.5092 82.0193,41.8702 C81.8223,42.2312 81.6023,42.5262 81.3573,42.7552 C80.9493,43.1542 80.4443,43.4222 79.8413,43.5622 C79.5183,43.6422 79.1513,43.6822 78.7433,43.6822 C77.7473,43.6822 76.9023,43.3202 76.2113,42.5952 C75.5193,41.8702 75.1723,40.8552 75.1723,39.5502 C75.1723,38.2652 75.5213,37.2222 76.2183,36.4202 C76.9153,35.6192 77.8263,35.2172 78.9523,35.2172 L78.9523,35.2172 Z M72.2593,43.3982 L73.6043,43.3982 L73.6043,32.4232 L72.2593,32.4232 L72.2593,43.3982 Z M63.9743,42.3372 L68.7173,36.5992 L64.3253,36.5992 L64.3253,35.3972 L70.5253,35.3972 L70.5253,36.4952 L65.8113,42.1952 L70.6673,42.1952 L70.6673,43.3982 L63.9743,43.3982 L63.9743,42.3372 Z M60.5893,33.1632 L61.9493,33.1632 L61.9493,35.3972 L63.2273,35.3972 L63.2273,36.4952 L61.9493,36.4952 L61.9493,41.7172 C61.9493,41.9962 62.0433,42.1832 62.2333,42.2772 C62.3373,42.3332 62.5123,42.3602 62.7563,42.3602 L62.9653,42.3562 C63.0403,42.3532 63.1273,42.3472 63.2273,42.3372 L63.2273,43.3982 C63.0723,43.4432 62.9123,43.4752 62.7453,43.4952 C62.5783,43.5152 62.3973,43.5252 62.2033,43.5252 C61.5753,43.5252 61.1493,43.3642 60.9253,43.0432 C60.7013,42.7222 60.5893,42.3042 60.5893,41.7922 L60.5893,36.4952 L59.5063,36.4952 L59.5063,35.3972 L60.5893,35.3972 L60.5893,33.1632 Z M55.0393,35.1662 C56.0693,35.1662 56.9413,35.5092 57.6533,36.1962 C58.3653,36.8832 58.7223,37.8942 58.7223,39.2292 C58.7223,40.5192 58.4083,41.5852 57.7803,42.4262 C57.1533,43.2682 56.1793,43.6892 54.8593,43.6892 C53.7583,43.6892 52.8843,43.3172 52.2373,42.5732 C51.5893,41.8282 51.2663,40.8282 51.2663,39.5732 C51.2663,38.2282 51.6073,37.1582 52.2893,36.3612 C52.9723,35.5642 53.8883,35.1662 55.0393,35.1662 L55.0393,35.1662 Z M54.9863,42.5322 C55.8783,42.5322 56.4893,42.1942 56.8203,41.5192 C57.1513,40.8442 57.3173,40.0932 57.3173,39.2662 C57.3173,38.5192 57.1983,37.9122 56.9593,37.4442 C56.5803,36.7072 55.9283,36.3382 55.0013,36.3382 C54.1793,36.3382 53.5823,36.6522 53.2083,37.2802 C52.8343,37.9072 52.6483,38.6642 52.6483,39.5502 C52.6483,40.4022 52.8343,41.1122 53.2083,41.6792 C53.5823,42.2482 54.1743,42.5322 54.9863,42.5322 L54.9863,42.5322 Z M46.1783,35.2542 C46.7913,35.2542 47.3043,35.3842 47.7173,35.6432 C47.9563,35.7932 48.2283,36.0542 48.5323,36.4272 L48.5323,32.3862 L49.8243,32.3862 L49.8243,43.3982 L48.6143,43.3982 L48.6143,42.2852 C48.3003,42.7782 47.9293,43.1342 47.5003,43.3532 C47.0723,43.5722 46.5823,43.6822 46.0293,43.6822 C45.1373,43.6822 44.3653,43.3072 43.7133,42.5572 C43.0613,41.8082 42.7343,40.8102 42.7343,39.5652 C42.7343,38.4002 43.0323,37.3902 43.6273,36.5362 C44.2223,35.6822 45.0733,35.2542 46.1783,35.2542 L46.1783,35.2542 Z M44.1543,39.4912 C44.1543,40.3472 44.3353,41.0652 44.6993,41.6422 C45.0633,42.2202 45.6463,42.5092 46.4473,42.5092 C47.0703,42.5092 47.5823,42.2412 47.9823,41.7062 C48.3833,41.1702 48.5843,40.4022 48.5843,39.4012 C48.5843,38.3902 48.3773,37.6422 47.9643,37.1562 C47.5503,36.6702 47.0403,36.4272 46.4323,36.4272 C45.7553,36.4272 45.2063,36.6872 44.7853,37.2052 C44.3643,37.7222 44.1543,38.4852 44.1543,39.4912 L44.1543,39.4912 Z M39.0813,38.5492 C39.3903,38.5092 39.5973,38.3802 39.7013,38.1612 C39.7613,38.0422 39.7913,37.8702 39.7913,37.6452 C39.7913,37.1872 39.6283,36.8552 39.3013,36.6482 C38.9753,36.4412 38.5083,36.3382 37.9013,36.3382 C37.1983,36.3382 36.7003,36.5272 36.4073,36.9062 C36.2423,37.1152 36.1353,37.4262 36.0853,37.8392 L34.8303,37.8392 C34.8553,36.8542 35.1753,36.1682 35.7903,35.7822 C36.4053,35.3952 37.1193,35.2032 37.9313,35.2032 C38.8723,35.2032 39.6363,35.3812 40.2243,35.7412 C40.8073,36.0992 41.0983,36.6572 41.0983,37.4142 L41.0983,42.0232 C41.0983,42.1632 41.1273,42.2752 41.1843,42.3602 C41.2413,42.4442 41.3623,42.4872 41.5463,42.4872 C41.6063,42.4872 41.6733,42.4832 41.7483,42.4752 C41.8233,42.4672 41.9023,42.4572 41.9873,42.4422 L41.9873,43.4352 L41.7603,43.4972 C41.6593,43.5212 41.5753,43.5392 41.5093,43.5472 C41.3993,43.5622 41.2503,43.5702 41.0613,43.5702 C40.5983,43.5702 40.2613,43.4062 40.0523,43.0772 C39.9433,42.9022 39.8663,42.6562 39.8213,42.3372 C39.5473,42.6962 39.1533,43.0072 38.6403,43.2712 C38.1273,43.5352 37.5623,43.6672 36.9443,43.6672 C36.2023,43.6672 35.5963,43.4422 35.1253,42.9912 C34.6553,42.5402 34.4193,41.9762 34.4193,41.2982 C34.4193,40.5562 34.6513,39.9812 35.1143,39.5732 C35.5773,39.1652 36.1853,38.9132 36.9373,38.8182 L39.0813,38.5492 Z M35.8243,41.2692 C35.8243,41.6572 35.9663,41.9632 36.2503,42.1882 C36.5343,42.4122 36.8703,42.5242 37.2583,42.5242 C37.7313,42.5242 38.1893,42.4152 38.6333,42.1952 C39.3803,41.8322 39.7533,41.2372 39.7533,40.4102 L39.7533,39.3272 C39.5893,39.4312 39.3773,39.5182 39.1193,39.5872 C38.8593,39.6582 38.6053,39.7082 38.3563,39.7372 L37.5423,39.8422 C37.0543,39.9072 36.6883,40.0082 36.4443,40.1482 C36.0313,40.3822 35.8243,40.7552 35.8243,41.2692 L35.8243,41.2692 Z M27.9423,40.8882 C27.9823,41.3362 28.0943,41.6792 28.2783,41.9182 C28.6173,42.3522 29.2053,42.5692 30.0423,42.5692 C30.5403,42.5692 30.9783,42.4602 31.3563,42.2442 C31.7353,42.0272 31.9243,41.6922 31.9243,41.2392 C31.9243,40.8952 31.7723,40.6332 31.4683,40.4552 C31.2983,40.3592 30.9833,40.2502 30.5243,40.1262 L29.2503,39.8042 C28.5673,39.6352 28.0643,39.4462 27.7413,39.2372 C27.1633,38.8742 26.8743,38.3702 26.8743,37.7282 C26.8743,36.9702 27.1463,36.3582 27.6923,35.8902 C28.2373,35.4212 28.9713,35.1882 29.8923,35.1882 C31.0973,35.1882 31.9663,35.5422 32.5003,36.2492 C32.8333,36.6972 32.9953,37.1802 32.9853,37.6982 L31.7153,37.6982 C31.6903,37.3942 31.5833,37.1182 31.3943,36.8692 C31.0853,36.5152 30.5493,36.3382 29.7883,36.3382 C29.2793,36.3382 28.8953,36.4352 28.6333,36.6292 C28.3723,36.8242 28.2413,37.0812 28.2413,37.3992 C28.2413,37.7482 28.4133,38.0272 28.7563,38.2362 C28.9563,38.3602 29.2503,38.4692 29.6383,38.5642 L30.5273,38.7812 C31.4933,39.0152 32.1413,39.2422 32.4703,39.4602 C32.9933,39.8042 33.2543,40.3452 33.2543,41.0822 C33.2543,41.7942 32.9843,42.4102 32.4433,42.9272 C31.9033,43.4452 31.0803,43.7052 29.9743,43.7052 C28.7843,43.7052 27.9413,43.4342 27.4453,42.8942 C26.9503,42.3532 26.6853,41.6852 26.6503,40.8882 L27.9423,40.8882 Z M22.9223,38.5492 C23.2313,38.5092 23.4383,38.3802 23.5423,38.1612 C23.6023,38.0422 23.6323,37.8702 23.6323,37.6452 C23.6323,37.1872 23.4693,36.8552 23.1433,36.6482 C22.8163,36.4412 22.3493,36.3382 21.7423,36.3382 C21.0403,36.3382 20.5423,36.5272 20.2483,36.9062 C20.0833,37.1152 19.9763,37.4262 19.9263,37.8392 L18.6713,37.8392 C18.6963,36.8542 19.0163,36.1682 19.6313,35.7822 C20.2463,35.3952 20.9593,35.2032 21.7713,35.2032 C22.7133,35.2032 23.4773,35.3812 24.0653,35.7412 C24.6473,36.0992 24.9393,36.6572 24.9393,37.4142 L24.9393,42.0232 C24.9393,42.1632 24.9683,42.2752 25.0253,42.3602 C25.0823,42.4442 25.2033,42.4872 25.3873,42.4872 C25.4473,42.4872 25.5143,42.4832 25.5893,42.4752 C25.6643,42.4672 25.7433,42.4572 25.8283,42.4422 L25.8283,43.4352 L25.6013,43.4972 C25.5003,43.5212 25.4163,43.5392 25.3503,43.5472 C25.2403,43.5622 25.0913,43.5702 24.9023,43.5702 C24.4383,43.5702 24.1033,43.4062 23.8933,43.0772 C23.7843,42.9022 23.7073,42.6562 23.6623,42.3372 C23.3883,42.6962 22.9943,43.0072 22.4813,43.2712 C21.9683,43.5352 21.4033,43.6672 20.7853,43.6672 C20.0433,43.6672 19.4373,43.4422 18.9663,42.9912 C18.4963,42.5402 18.2603,41.9762 18.2603,41.2982 C18.2603,40.5562 18.4923,39.9812 18.9553,39.5732 C19.4183,39.1652 20.0263,38.9132 20.7783,38.8182 L22.9223,38.5492 Z M19.6653,41.2692 C19.6653,41.6572 19.8073,41.9632 20.0903,42.1882 C20.3753,42.4122 20.7103,42.5242 21.0993,42.5242 C21.5723,42.5242 22.0303,42.4152 22.4743,42.1952 C23.2213,41.8322 23.5943,41.2372 23.5943,40.4102 L23.5943,39.3272 C23.4303,39.4312 23.2183,39.5182 22.9593,39.5872 C22.7003,39.6582 22.4463,39.7082 22.1973,39.7372 L21.3833,39.8422 C20.8953,39.9072 20.5293,40.0082 20.2853,40.1482 C19.8723,40.3822 19.6653,40.7552 19.6653,41.2692 L19.6653,41.2692 Z"/>
      <path fill="#5B5B66" d="M68.7923,21.4002 L65.3933,21.4002 C65.4123,20.8752 65.5823,20.4412 65.9013,20.1002 C66.2213,19.7592 66.6173,19.5892 67.0893,19.5892 C67.7493,19.5892 68.2193,19.8372 68.5003,20.3322 C68.6533,20.5982 68.7503,20.9552 68.7923,21.4002 L68.7923,21.4002 Z M67.1523,18.6922 C67.5863,18.6922 68.0073,18.7952 68.4153,18.9982 C68.8223,19.2022 69.1333,19.4652 69.3463,19.7902 C69.5113,20.0362 69.6313,20.3162 69.7083,20.6292 L69.7573,20.8692 C69.8183,21.1512 69.8493,21.6002 69.8493,22.2172 L65.3643,22.2172 C65.3833,22.8382 65.5303,23.3362 65.8043,23.7122 C66.0783,24.0872 66.5033,24.2742 67.0783,24.2742 C67.6153,24.2742 68.0433,24.0962 68.3633,23.7432 C68.5463,23.5372 68.6763,23.2982 68.7523,23.0292 L69.7633,23.0292 C69.7363,23.2542 69.6483,23.5042 69.4983,23.7802 C69.3473,24.0562 69.1793,24.2822 68.9923,24.4572 C68.6803,24.7612 68.2933,24.9672 67.8323,25.0742 C67.5843,25.1342 67.3053,25.1652 66.9923,25.1652 C66.2303,25.1652 65.5853,24.8882 65.0563,24.3342 C64.5263,23.7802 64.2623,23.0042 64.2623,22.0052 C64.2623,21.0232 64.5283,20.2252 65.0623,19.6122 C65.5953,18.9992 66.2923,18.6922 67.1523,18.6922 L67.1523,18.6922 Z M55.0383,18.8302 L56.0553,18.8302 L56.0553,19.6982 C56.2993,19.3972 56.5203,19.1782 56.7183,19.0412 C57.0573,18.8082 57.4413,18.6922 57.8723,18.6922 C58.3593,18.6922 58.7513,18.8122 59.0493,19.0522 C59.2163,19.1892 59.3693,19.3912 59.5063,19.6582 C59.7343,19.3312 60.0033,19.0872 60.3113,18.9292 C60.6203,18.7712 60.9663,18.6922 61.3513,18.6922 C62.1743,18.6922 62.7333,18.9902 63.0313,19.5842 C63.1903,19.9042 63.2713,20.3342 63.2713,20.8752 L63.2713,24.9482 L62.2023,24.9482 L62.2023,20.6982 C62.2023,20.2902 62.1003,20.0102 61.8963,19.8582 C61.6933,19.7062 61.4443,19.6292 61.1513,19.6292 C60.7483,19.6292 60.4003,19.7642 60.1083,20.0352 C59.8173,20.3052 59.6713,20.7562 59.6713,21.3892 L59.6713,24.9482 L58.6263,24.9482 L58.6263,20.9552 C58.6263,20.5402 58.5773,20.2372 58.4783,20.0462 C58.3213,19.7602 58.0303,19.6182 57.6043,19.6182 C57.2153,19.6182 56.8623,19.7682 56.5433,20.0692 C56.2263,20.3702 56.0663,20.9152 56.0663,21.7032 L56.0663,24.9482 L55.0383,24.9482 L55.0383,18.8302 Z M51.9903,21.2402 C52.2273,21.2102 52.3853,21.1112 52.4653,20.9432 C52.5103,20.8522 52.5333,20.7202 52.5333,20.5492 C52.5333,20.1992 52.4093,19.9442 52.1593,19.7872 C51.9103,19.6292 51.5523,19.5492 51.0883,19.5492 C50.5513,19.5492 50.1703,19.6942 49.9453,19.9832 C49.8193,20.1432 49.7383,20.3812 49.7003,20.6982 L48.7403,20.6982 C48.7593,19.9442 49.0033,19.4192 49.4743,19.1242 C49.9443,18.8292 50.4903,18.6812 51.1113,18.6812 C51.8313,18.6812 52.4153,18.8182 52.8653,19.0922 C53.3103,19.3672 53.5333,19.7932 53.5333,20.3722 L53.5333,23.8972 C53.5333,24.0042 53.5553,24.0892 53.5993,24.1542 C53.6433,24.2182 53.7353,24.2512 53.8753,24.2512 L54.0303,24.2432 C54.0873,24.2372 54.1483,24.2282 54.2133,24.2162 L54.2133,24.9762 L54.0013,25.0322 C53.9403,25.0462 53.8893,25.0562 53.8473,25.0622 C53.7633,25.0742 53.6493,25.0802 53.5043,25.0802 C53.1503,25.0802 52.8933,24.9542 52.7333,24.7032 C52.6493,24.5692 52.5903,24.3802 52.5563,24.1362 C52.3473,24.4112 52.0463,24.6492 51.6533,24.8512 C51.2613,25.0522 50.8293,25.1542 50.3563,25.1542 C49.7893,25.1542 49.3253,24.9812 48.9653,24.6362 C48.6053,24.2922 48.4263,23.8612 48.4263,23.3422 C48.4263,22.7752 48.6033,22.3362 48.9573,22.0232 C49.3113,21.7112 49.7763,21.5182 50.3513,21.4462 L51.9903,21.2402 Z M49.5003,23.3202 C49.5003,23.6172 49.6083,23.8512 49.8253,24.0222 C50.0423,24.1942 50.2993,24.2802 50.5973,24.2802 C50.9593,24.2802 51.3093,24.1962 51.6473,24.0282 C52.2193,23.7512 52.5043,23.2962 52.5043,22.6632 L52.5043,21.8352 C52.3793,21.9152 52.2173,21.9812 52.0193,22.0352 C51.8213,22.0872 51.6273,22.1262 51.4373,22.1492 L50.8133,22.2292 C50.4403,22.2782 50.1613,22.3562 49.9743,22.4622 C49.6583,22.6422 49.5003,22.9272 49.5003,23.3202 L49.5003,23.3202 Z M42.3843,18.8302 L43.3613,18.8302 L43.3613,19.6982 C43.6503,19.3392 43.9573,19.0832 44.2813,18.9262 C44.6053,18.7702 44.9643,18.6922 45.3613,18.6922 C46.2293,18.6922 46.8153,18.9952 47.1203,19.6012 C47.2883,19.9322 47.3723,20.4062 47.3723,21.0232 L47.3723,24.9482 L46.3263,24.9482 L46.3263,21.0912 C46.3263,20.7182 46.2713,20.4182 46.1613,20.1892 C45.9783,19.8082 45.6463,19.6182 45.1673,19.6182 C44.9233,19.6182 44.7233,19.6422 44.5663,19.6922 C44.2853,19.7762 44.0373,19.9442 43.8243,20.1952 C43.6523,20.3972 43.5413,20.6052 43.4903,20.8202 C43.4383,21.0362 43.4133,21.3432 43.4133,21.7432 L43.4133,24.9482 L42.3843,24.9482 L42.3843,18.8302 Z M38.6973,18.8302 L39.6733,18.8302 L39.6733,19.8862 C39.7533,19.6802 39.9503,19.4302 40.2623,19.1352 C40.5743,18.8392 40.9343,18.6922 41.3423,18.6922 L41.5323,18.7072 C41.5713,18.7112 41.6183,18.7152 41.6733,18.7212 L41.6733,19.8062 C41.6123,19.7952 41.5563,19.7882 41.5043,19.7842 L41.3363,19.7782 C40.8183,19.7782 40.4203,19.9442 40.1423,20.2782 C39.8643,20.6112 39.7253,20.9952 39.7253,21.4292 L39.7253,24.9482 L38.6973,24.9482 L38.6973,18.8302 Z M36.5293,21.4002 C36.4873,20.9552 36.3903,20.5982 36.2373,20.3322 C35.9563,19.8372 35.4853,19.5892 34.8263,19.5892 C34.3543,19.5892 33.9583,19.7592 33.6383,20.1002 C33.3183,20.4412 33.1483,20.8752 33.1293,21.4002 L36.5293,21.4002 Z M34.8893,18.6922 C35.3233,18.6922 35.7443,18.7952 36.1513,18.9982 C36.5593,19.2022 36.8703,19.4652 37.0833,19.7902 C37.2893,20.0972 37.4263,20.4582 37.4943,20.8692 C37.5553,21.1512 37.5853,21.6002 37.5853,22.2172 L33.1013,22.2172 C33.1203,22.8382 33.2673,23.3362 33.5413,23.7122 C33.8153,24.0872 34.2403,24.2742 34.8153,24.2742 C35.3523,24.2742 35.7803,24.0962 36.1003,23.7432 C36.2833,23.5372 36.4133,23.2982 36.4893,23.0292 L37.5003,23.0292 C37.4733,23.2542 37.3853,23.5042 37.2343,23.7802 C37.0843,24.0562 36.9153,24.2822 36.7293,24.4572 C36.4173,24.7612 36.0303,24.9672 35.5693,25.0742 C35.3213,25.1342 35.0423,25.1652 34.7293,25.1652 C33.9673,25.1652 33.3223,24.8882 32.7923,24.3342 C32.2633,23.7802 31.9993,23.0042 31.9993,22.0052 C31.9993,21.0232 32.2653,20.2252 32.7983,19.6122 C33.3323,18.9992 34.0283,18.6922 34.8893,18.6922 L34.8893,18.6922 Z M27.2823,23.0292 C27.3133,23.3722 27.3983,23.6342 27.5403,23.8172 C27.7983,24.1482 28.2483,24.3142 28.8883,24.3142 C29.2693,24.3142 29.6043,24.2312 29.8933,24.0652 C30.1833,23.9002 30.3273,23.6432 30.3273,23.2962 C30.3273,23.0342 30.2113,22.8352 29.9793,22.6972 C29.8313,22.6132 29.5373,22.5162 29.0993,22.4062 L28.2823,22.2002 C27.7603,22.0712 27.3753,21.9252 27.1283,21.7662 C26.6873,21.4882 26.4653,21.1032 26.4653,20.6122 C26.4653,20.0332 26.6743,19.5642 27.0913,19.2072 C27.5083,18.8482 28.0693,18.6702 28.7733,18.6702 C29.6953,18.6702 30.3603,18.9402 30.7673,19.4812 C31.0223,19.8242 31.1463,20.1932 31.1393,20.5892 L30.1673,20.5892 C30.1483,20.3572 30.0663,20.1452 29.9223,19.9552 C29.6863,19.6842 29.2763,19.5492 28.6933,19.5492 C28.3053,19.5492 28.0113,19.6242 27.8113,19.7722 C27.6113,19.9212 27.5113,20.1172 27.5113,20.3612 C27.5113,20.6282 27.6423,20.8402 27.9053,21.0012 C28.0583,21.0952 28.2823,21.1792 28.5793,21.2522 L29.2593,21.4182 C29.9983,21.5962 30.4933,21.7702 30.7453,21.9372 C31.1453,22.2002 31.3443,22.6132 31.3443,23.1772 C31.3443,23.7212 31.1383,24.1922 30.7253,24.5882 C30.3113,24.9842 29.6823,25.1822 28.8363,25.1822 C27.9263,25.1822 27.2813,24.9752 26.9023,24.5622 C26.5233,24.1492 26.3213,23.6382 26.2943,23.0292 L27.2823,23.0292 Z M19.7733,16.5552 L19.7733,21.7432 C19.7733,22.3522 19.8873,22.8592 20.1163,23.2622 C20.4553,23.8722 21.0263,24.1762 21.8303,24.1762 C22.7933,24.1762 23.4483,23.8472 23.7953,23.1882 C23.9813,22.8312 24.0753,22.3482 24.0753,21.7432 L24.0753,16.5552 L25.2293,16.5552 L25.2293,21.2692 C25.2293,22.3012 25.0903,23.0952 24.8123,23.6512 C24.3013,24.6652 23.3383,25.1712 21.9213,25.1712 C20.5043,25.1712 19.5423,24.6652 19.0363,23.6512 C18.7583,23.0952 18.6193,22.3012 18.6193,21.2692 L18.6193,16.5552 L19.7733,16.5552 Z"/>
    </g>
    <g transform="translate(128.278 187.119)">
      <mask id="img-lockwise-e" fill="#fff">
        <use xlink:href="#img-lockwise-c"/>
      </mask>
      <use fill="#000" filter="url(#img-lockwise-d)" xlink:href="#img-lockwise-c"/>
      <path fill="#FFF" d="M272.298357,61.881 L2.70254161,61.881 C1.20981175,61.881 0,60.5365566 0,58.8787093 L0,3.88329073 C0,2.22444525 1.20981175,0.881 2.70254161,0.881 L272.298357,0.881 C273.790188,0.881 275,2.22444525 275,3.88329073 L275,58.8787093 C275,60.5365566 273.790188,61.881 272.298357,61.881" mask="url(#img-lockwise-e)"/>
      <path fill="#20123A" d="M78.7682,38.4034 C78.7682,38.8534 78.6222,39.2254 78.3292,39.5214 C78.0362,39.8164 77.6642,39.9644 77.2142,39.9644 C76.7642,39.9644 76.3932,39.8164 76.1002,39.5214 C75.8072,39.2254 75.6612,38.8534 75.6612,38.4034 C75.6612,37.9534 75.8072,37.5834 76.1002,37.2924 C76.3932,37.0024 76.7642,36.8564 77.2142,36.8564 C77.6642,36.8564 78.0362,37.0024 78.3292,37.2924 C78.6222,37.5834 78.7682,37.9534 78.7682,38.4034 M73.8862,38.4034 C73.8862,38.8534 73.7402,39.2254 73.4472,39.5214 C73.1542,39.8164 72.7832,39.9644 72.3322,39.9644 C71.8822,39.9644 71.5112,39.8164 71.2182,39.5214 C70.9252,39.2254 70.7792,38.8534 70.7792,38.4034 C70.7792,37.9534 70.9252,37.5834 71.2182,37.2924 C71.5112,37.0024 71.8822,36.8564 72.3322,36.8564 C72.7832,36.8564 73.1542,37.0024 73.4472,37.2924 C73.7402,37.5834 73.8862,37.9534 73.8862,38.4034 M69.0052,38.4034 C69.0052,38.8534 68.8592,39.2254 68.5662,39.5214 C68.2732,39.8164 67.9012,39.9644 67.4512,39.9644 C67.0012,39.9644 66.6302,39.8164 66.3372,39.5214 C66.0442,39.2254 65.8972,38.8534 65.8972,38.4034 C65.8972,37.9534 66.0442,37.5834 66.3372,37.2924 C66.6302,37.0024 67.0012,36.8564 67.4512,36.8564 C67.9012,36.8564 68.2732,37.0024 68.5662,37.2924 C68.8592,37.5834 69.0052,37.9534 69.0052,38.4034 M64.1242,38.4034 C64.1242,38.8534 63.9772,39.2254 63.6852,39.5214 C63.3922,39.8164 63.0202,39.9644 62.5702,39.9644 C62.1202,39.9644 61.7482,39.8164 61.4562,39.5214 C61.1632,39.2254 61.0162,38.8534 61.0162,38.4034 C61.0162,37.9534 61.1632,37.5834 61.4562,37.2924 C61.7482,37.0024 62.1202,36.8564 62.5702,36.8564 C63.0202,36.8564 63.3922,37.0024 63.6852,37.2924 C63.9772,37.5834 64.1242,37.9534 64.1242,38.4034 M59.2432,38.4034 C59.2432,38.8534 59.0962,39.2254 58.8032,39.5214 C58.5102,39.8164 58.1392,39.9644 57.6882,39.9644 C57.2392,39.9644 56.8672,39.8164 56.5742,39.5214 C56.2812,39.2254 56.1352,38.8534 56.1352,38.4034 C56.1352,37.9534 56.2812,37.5834 56.5742,37.2924 C56.8672,37.0024 57.2392,36.8564 57.6882,36.8564 C58.1392,36.8564 58.5102,37.0024 58.8032,37.2924 C59.0962,37.5834 59.2432,37.9534 59.2432,38.4034 M54.3612,38.4034 C54.3612,38.8534 54.2142,39.2254 53.9212,39.5214 C53.6282,39.8164 53.2572,39.9644 52.8072,39.9644 C52.3572,39.9644 51.9862,39.8164 51.6932,39.5214 C51.4002,39.2254 51.2532,38.8534 51.2532,38.4034 C51.2532,37.9534 51.4002,37.5834 51.6932,37.2924 C51.9862,37.0024 52.3572,36.8564 52.8072,36.8564 C53.2572,36.8564 53.6282,37.0024 53.9212,37.2924 C54.2142,37.5834 54.3612,37.9534 54.3612,38.4034 M49.4792,38.4034 C49.4792,38.8534 49.3332,39.2254 49.0402,39.5214 C48.7472,39.8164 48.3762,39.9644 47.9262,39.9644 C47.4762,39.9644 47.1042,39.8164 46.8112,39.5214 C46.5182,39.2254 46.3722,38.8534 46.3722,38.4034 C46.3722,37.9534 46.5182,37.5834 46.8112,37.2924 C47.1042,37.0024 47.4762,36.8564 47.9262,36.8564 C48.3762,36.8564 48.7472,37.0024 49.0402,37.2924 C49.3332,37.5834 49.4792,37.9534 49.4792,38.4034 M44.5982,38.4034 C44.5982,38.8534 44.4522,39.2254 44.1592,39.5214 C43.8662,39.8164 43.4942,39.9644 43.0442,39.9644 C42.5942,39.9644 42.2232,39.8164 41.9302,39.5214 C41.6372,39.2254 41.4902,38.8534 41.4902,38.4034 C41.4902,37.9534 41.6372,37.5834 41.9302,37.2924 C42.2232,37.0024 42.5942,36.8564 43.0442,36.8564 C43.4942,36.8564 43.8662,37.0024 44.1592,37.2924 C44.4522,37.5834 44.5982,37.9534 44.5982,38.4034 M39.7172,38.4034 C39.7172,38.8534 39.5702,39.2254 39.2772,39.5214 C38.9842,39.8164 38.6132,39.9644 38.1632,39.9644 C37.7132,39.9644 37.3412,39.8164 37.0482,39.5214 C36.7552,39.2254 36.6092,38.8534 36.6092,38.4034 C36.6092,37.9534 36.7552,37.5834 37.0482,37.2924 C37.3412,37.0024 37.7132,36.8564 38.1632,36.8564 C38.6132,36.8564 38.9842,37.0024 39.2772,37.2924 C39.5702,37.5834 39.7172,37.9534 39.7172,38.4034 M34.8352,38.4034 C34.8352,38.8534 34.6892,39.2254 34.3962,39.5214 C34.1032,39.8164 33.7312,39.9644 33.2822,39.9644 C32.8312,39.9644 32.4602,39.8164 32.1672,39.5214 C31.8742,39.2254 31.7272,38.8534 31.7272,38.4034 C31.7272,37.9534 31.8742,37.5834 32.1672,37.2924 C32.4602,37.0024 32.8312,36.8564 33.2822,36.8564 C33.7312,36.8564 34.1032,37.0024 34.3962,37.2924 C34.6892,37.5834 34.8352,37.9534 34.8352,38.4034 M29.9542,38.4034 C29.9542,38.8534 29.8082,39.2254 29.5152,39.5214 C29.2222,39.8164 28.8502,39.9644 28.4002,39.9644 C27.9502,39.9644 27.5792,39.8164 27.2862,39.5214 C26.9932,39.2254 26.8462,38.8534 26.8462,38.4034 C26.8462,37.9534 26.9932,37.5834 27.2862,37.2924 C27.5792,37.0024 27.9502,36.8564 28.4002,36.8564 C28.8502,36.8564 29.2222,37.0024 29.5152,37.2924 C29.8082,37.5834 29.9542,37.9534 29.9542,38.4034 M25.0732,38.4034 C25.0732,38.8534 24.9262,39.2254 24.6332,39.5214 C24.3402,39.8164 23.9692,39.9644 23.5182,39.9644 C23.0692,39.9644 22.6972,39.8164 22.4042,39.5214 C22.1112,39.2254 21.9652,38.8534 21.9652,38.4034 C21.9652,37.9534 22.1112,37.5834 22.4042,37.2924 C22.6972,37.0024 23.0692,36.8564 23.5182,36.8564 C23.9692,36.8564 24.3402,37.0024 24.6332,37.2924 C24.9262,37.5834 25.0732,37.9534 25.0732,38.4034 M20.1912,38.4034 C20.1912,38.8534 20.0452,39.2254 19.7522,39.5214 C19.4592,39.8164 19.0872,39.9644 18.6372,39.9644 C18.1872,39.9644 17.8162,39.8164 17.5232,39.5214 C17.2302,39.2254 17.0832,38.8534 17.0832,38.4034 C17.0832,37.9534 17.2302,37.5834 17.5232,37.2924 C17.8162,37.0024 18.1872,36.8564 18.6372,36.8564 C19.0872,36.8564 19.4592,37.0024 19.7522,37.2924 C20.0452,37.5834 20.1912,37.9534 20.1912,38.4034"/>
      <path fill="#000" d="M252.3648,39.4142 L252.3648,32.2142 L254.4218,32.2142 L254.4218,34.7852 C254.4218,35.0692 254.6518,35.3002 254.9358,35.3002 L257.5078,35.3002 L257.5078,39.4142 L252.3648,39.4142 Z M250.3068,32.2142 L250.3068,34.2712 L247.2208,34.2712 L247.2208,27.0712 L249.2788,27.0712 L249.2788,29.6432 C249.2788,29.9272 249.5098,30.1572 249.7928,30.1572 L252.3648,30.1572 C251.2278,30.1572 250.3068,31.0782 250.3068,32.2142 L250.3068,32.2142 Z M251.9388,29.1282 L250.3068,29.1282 L250.3068,27.4972 L251.9388,29.1282 Z M257.0818,34.2712 L255.4498,34.2712 L255.4498,32.6402 L257.0818,34.2712 Z M259.2628,33.5442 L256.1778,30.4582 C255.9848,30.2662 255.7228,30.1572 255.4498,30.1572 L254.4218,30.1572 L254.4218,29.1282 C254.4218,28.8552 254.3128,28.5942 254.1198,28.4012 L251.0348,25.3152 C250.8418,25.1222 250.5798,25.0142 250.3068,25.0142 L247.2208,25.0142 C246.0858,25.0142 245.1648,25.9352 245.1648,27.0712 L245.1648,34.2712 C245.1648,35.4072 246.0858,36.3282 247.2208,36.3282 L250.3068,36.3282 L250.3068,39.4142 C250.3068,40.5502 251.2278,41.4722 252.3648,41.4722 L257.5078,41.4722 C258.6428,41.4722 259.5638,40.5502 259.5638,39.4142 L259.5638,34.2712 C259.5638,33.9982 259.4558,33.7372 259.2628,33.5442 L259.2628,33.5442 Z"/>
      <path fill="#5B5B66" d="M62.5929,20.7872 C63.0609,20.7872 63.4539,20.8862 63.7699,21.0842 C63.9519,21.1982 64.1599,21.3982 64.3919,21.6832 L64.3919,18.5932 L65.3809,18.5932 L65.3809,27.0142 L64.4549,27.0142 L64.4549,26.1632 C64.2159,26.5402 63.9309,26.8122 63.6039,26.9792 C63.2769,27.1472 62.9019,27.2312 62.4789,27.2312 C61.7969,27.2312 61.2069,26.9442 60.7079,26.3712 C60.2089,25.7982 59.9589,25.0352 59.9589,24.0832 C59.9589,23.1922 60.1869,22.4202 60.6419,21.7662 C61.0969,21.1132 61.7469,20.7872 62.5929,20.7872 L62.5929,20.7872 Z M61.0449,24.0262 C61.0449,24.6822 61.1839,25.2292 61.4619,25.6722 C61.7399,26.1132 62.1849,26.3342 62.7989,26.3342 C63.2749,26.3342 63.6659,26.1302 63.9719,25.7202 C64.2789,25.3102 64.4319,24.7242 64.4319,23.9582 C64.4319,23.1842 64.2739,22.6122 63.9579,22.2412 C63.6419,21.8692 63.2519,21.6832 62.7869,21.6832 C62.2689,21.6832 61.8489,21.8822 61.5279,22.2782 C61.2059,22.6742 61.0449,23.2572 61.0449,24.0262 L61.0449,24.0262 Z M56.7059,20.8952 L57.6829,20.8952 L57.6829,21.9522 C57.7619,21.7472 57.9589,21.4962 58.2709,21.2012 C58.5829,20.9062 58.9429,20.7592 59.3509,20.7592 L59.4059,20.7612 L59.6819,20.7872 L59.6819,21.8722 C59.6209,21.8612 59.5649,21.8532 59.5139,21.8492 L59.3449,21.8442 C58.8269,21.8442 58.4289,22.0112 58.1509,22.3442 C57.8729,22.6772 57.7339,23.0602 57.7339,23.4952 L57.7339,27.0142 L56.7059,27.0142 L56.7059,20.8952 Z M52.8179,20.7192 C53.6069,20.7192 54.2729,20.9812 54.8179,21.5072 C55.3629,22.0322 55.6349,22.8062 55.6349,23.8262 C55.6349,24.8122 55.3949,25.6282 54.9149,26.2712 C54.4349,26.9152 53.6899,27.2372 52.6809,27.2372 C51.8399,27.2372 51.1709,26.9522 50.6759,26.3832 C50.1809,25.8132 49.9329,25.0492 49.9329,24.0892 C49.9329,23.0602 50.1939,22.2422 50.7159,21.6332 C51.2379,21.0232 51.9379,20.7192 52.8179,20.7192 L52.8179,20.7192 Z M52.7779,26.3512 C53.4599,26.3512 53.9269,26.0942 54.1809,25.5772 C54.4339,25.0612 54.5609,24.4872 54.5609,23.8542 C54.5609,23.2832 54.4689,22.8192 54.2859,22.4612 C53.9969,21.8972 53.4979,21.6152 52.7899,21.6152 C52.1609,21.6152 51.7039,21.8552 51.4189,22.3352 C51.1329,22.8152 50.9899,23.3932 50.9899,24.0722 C50.9899,24.7242 51.1329,25.2662 51.4189,25.7002 C51.7039,26.1342 52.1569,26.3512 52.7779,26.3512 L52.7779,26.3512 Z M42.5549,20.8952 L43.7319,25.7172 L44.9259,20.8952 L46.0799,20.8952 L47.2799,25.6882 L48.5299,20.8952 L49.5589,20.8952 L47.7819,27.0142 L46.7139,27.0142 L45.4679,22.2782 L44.2629,27.0142 L43.1949,27.0142 L41.4289,20.8952 L42.5549,20.8952 Z M37.0219,25.0952 C37.0519,25.4372 37.1379,25.7002 37.2789,25.8832 C37.5379,26.2142 37.9879,26.3802 38.6279,26.3802 C39.0089,26.3802 39.3429,26.2972 39.6329,26.1322 C39.9229,25.9662 40.0669,25.7102 40.0669,25.3632 C40.0669,25.1002 39.9509,24.9002 39.7179,24.7632 C39.5699,24.6802 39.2769,24.5822 38.8389,24.4722 L38.0219,24.2662 C37.4999,24.1372 37.1149,23.9922 36.8679,23.8322 C36.4259,23.5542 36.2049,23.1692 36.2049,22.6782 C36.2049,22.0992 36.4139,21.6312 36.8309,21.2722 C37.2479,20.9152 37.8089,20.7352 38.5129,20.7352 C39.4349,20.7352 40.0989,21.0062 40.5069,21.5472 C40.7619,21.8902 40.8859,22.2592 40.8779,22.6552 L39.9069,22.6552 C39.8879,22.4232 39.8059,22.2112 39.6609,22.0202 C39.4259,21.7512 39.0159,21.6152 38.4329,21.6152 C38.0449,21.6152 37.7509,21.6892 37.5509,21.8382 C37.3509,21.9862 37.2509,22.1832 37.2509,22.4272 C37.2509,22.6932 37.3819,22.9062 37.6449,23.0662 C37.7969,23.1622 38.0219,23.2452 38.3189,23.3172 L38.9989,23.4832 C39.7379,23.6622 40.2329,23.8362 40.4839,24.0032 C40.8839,24.2662 41.0839,24.6802 41.0839,25.2432 C41.0839,25.7882 40.8769,26.2582 40.4639,26.6542 C40.0509,27.0502 39.4219,27.2482 38.5759,27.2482 C37.6659,27.2482 37.0209,27.0422 36.6419,26.6292 C36.2629,26.2152 36.0599,25.7042 36.0339,25.0952 L37.0219,25.0952 Z M31.3519,25.0952 C31.3829,25.4372 31.4679,25.7002 31.6089,25.8832 C31.8679,26.2142 32.3179,26.3802 32.9569,26.3802 C33.3379,26.3802 33.6739,26.2972 33.9629,26.1322 C34.2519,25.9662 34.3969,25.7102 34.3969,25.3632 C34.3969,25.1002 34.2809,24.9002 34.0489,24.7632 C33.8999,24.6802 33.6069,24.5822 33.1689,24.4722 L32.3519,24.2662 C31.8299,24.1372 31.4459,23.9922 31.1979,23.8322 C30.7559,23.5542 30.5349,23.1692 30.5349,22.6782 C30.5349,22.0992 30.7439,21.6312 31.1609,21.2722 C31.5779,20.9152 32.1379,20.7352 32.8429,20.7352 C33.7649,20.7352 34.4289,21.0062 34.8369,21.5472 C35.0919,21.8902 35.2159,22.2592 35.2079,22.6552 L34.2369,22.6552 C34.2179,22.4232 34.1359,22.2112 33.9909,22.0202 C33.7559,21.7512 33.3459,21.6152 32.7629,21.6152 C32.3749,21.6152 32.0799,21.6892 31.8809,21.8382 C31.6799,21.9862 31.5809,22.1832 31.5809,22.4272 C31.5809,22.6932 31.7119,22.9062 31.9749,23.0662 C32.1269,23.1622 32.3519,23.2452 32.6489,23.3172 L33.3289,23.4832 C34.0679,23.6622 34.5629,23.8362 34.8139,24.0032 C35.2139,24.2662 35.4139,24.6802 35.4139,25.2432 C35.4139,25.7882 35.2069,26.2582 34.7939,26.6542 C34.3809,27.0502 33.7519,27.2482 32.9059,27.2482 C31.9959,27.2482 31.3509,27.0422 30.9719,26.6292 C30.5929,26.2152 30.3899,25.7042 30.3639,25.0952 L31.3519,25.0952 Z M27.6929,23.3072 C27.9289,23.2762 28.0869,23.1772 28.1669,23.0102 C28.2129,22.9182 28.2359,22.7862 28.2359,22.6152 C28.2359,22.2652 28.1109,22.0112 27.8619,21.8522 C27.6119,21.6942 27.2549,21.6152 26.7899,21.6152 C26.2539,21.6152 25.8729,21.7602 25.6479,22.0502 C25.5219,22.2102 25.4399,22.4472 25.4019,22.7642 L24.4429,22.7642 C24.4619,22.0102 24.7059,21.4852 25.1759,21.1892 C25.6469,20.8942 26.1929,20.7472 26.8129,20.7472 C27.5329,20.7472 28.1179,20.8842 28.5669,21.1582 C29.0129,21.4332 29.2359,21.8592 29.2359,22.4382 L29.2359,25.9632 C29.2359,26.0692 29.2579,26.1552 29.3009,26.2202 C29.3449,26.2852 29.4369,26.3172 29.5779,26.3172 L29.7329,26.3082 C29.7899,26.3032 29.8509,26.2942 29.9149,26.2832 L29.9149,27.0432 L29.7039,27.0992 C29.6429,27.1122 29.5919,27.1232 29.5499,27.1282 C29.4659,27.1402 29.3519,27.1452 29.2069,27.1452 C28.8529,27.1452 28.5959,27.0192 28.4359,26.7682 C28.3519,26.6352 28.2929,26.4462 28.2589,26.2032 C28.0489,26.4762 27.7479,26.7152 27.3559,26.9172 C26.9639,27.1192 26.5309,27.2202 26.0589,27.2202 C25.4919,27.2202 25.0279,27.0482 24.6679,26.7032 C24.3079,26.3582 24.1279,25.9272 24.1279,25.4092 C24.1279,24.8412 24.3049,24.4012 24.6589,24.0892 C25.0139,23.7762 25.4779,23.5842 26.0529,23.5122 L27.6929,23.3072 Z M25.2019,25.3862 C25.2019,25.6832 25.3109,25.9172 25.5279,26.0892 C25.7449,26.2602 26.0019,26.3462 26.2989,26.3462 C26.6609,26.3462 27.0109,26.2622 27.3499,26.0952 C27.9219,25.8162 28.2069,25.3612 28.2069,24.7282 L28.2069,23.9002 C28.0819,23.9802 27.9199,24.0472 27.7209,24.1002 C27.5239,24.1532 27.3289,24.1912 27.1389,24.2152 L26.5159,24.2952 C26.1429,24.3442 25.8629,24.4222 25.6759,24.5292 C25.3599,24.7082 25.2019,24.9932 25.2019,25.3862 L25.2019,25.3862 Z M22.1549,21.0322 C22.1549,20.4162 21.9259,19.9972 21.4689,19.7752 C21.2179,19.6582 20.8729,19.5992 20.4349,19.5992 L18.1729,19.5992 L18.1729,22.5072 L20.4349,22.5072 C20.9449,22.5072 21.3599,22.3982 21.6769,22.1812 C21.9949,21.9642 22.1549,21.5812 22.1549,21.0322 L22.1549,21.0322 Z M17.0359,18.6222 L20.8119,18.6222 C21.5579,18.6222 22.1599,18.8322 22.6169,19.2532 C23.0739,19.6742 23.3029,20.2662 23.3029,21.0272 C23.3029,21.6822 23.0989,22.2522 22.6919,22.7382 C22.2839,23.2242 21.6569,23.4672 20.8119,23.4672 L18.1729,23.4672 L18.1729,27.0142 L17.0359,27.0142 L17.0359,18.6222 Z"/>
    </g>
    <g transform="translate(251 149)">
      <path fill="#7542E5" d="M46.2102866,23.5906029 C46.2102866,22.4378318 45.772402,21.5732534 45.0425943,20.8527715 C44.166825,19.9881932 43.2910558,19.7000004 42.269325,19.7000004 L34.0954787,19.7000004 L12.7850936,19.7000004 L4.61286914,19.7000004 C3.44355501,19.7000004 2.56778576,20.1322896 1.83797806,20.8527715 C0.963830604,21.7173498 0.670285727,22.5819282 0.670285727,23.5906029 L0.670285727,51.6893986 C0.670285727,52.8421697 1.10817035,53.706748 1.83797806,54.42723 C2.56778576,55.2918083 3.58951655,55.5800011 4.61286914,55.5800011 L42.269325,55.5800011 C43.4370173,55.5800011 44.3127866,55.1477119 45.0425943,54.42723 C45.9183635,53.706748 46.2102866,52.6980733 46.2102866,51.6893986 L46.2102866,23.5906029 Z"/>
      <path stroke="#7542E5" stroke-width="6.053" d="M33.7902864,20.7000004 L33.7902864,11.4474288 C33.7902864,8.31121444 32.7978961,5.64485725 30.8115404,3.29392863 C28.8283351,1.09742859 26.2748993,0 23.4410738,0 C20.6056731,0 18.1955825,1.09742859 16.0690319,3.29392863 C14.0842514,5.48878582 13.090286,8.31121444 13.090286,11.4474288 L13.090286,20.7000004"/>
      <path fill="#CB9EFF" d="M26.7465362,43.2345954 L24.4465362,36.3718926 C25.0215362,36.2227034 25.451189,35.924325 25.8840362,35.4767574 C26.6027862,34.7308115 26.8902862,33.9848655 26.8902862,32.9405412 C26.8902862,31.8962168 26.6027862,31.0010817 25.8840362,30.4043249 C25.1652862,29.658379 24.4465362,29.3600006 23.4402862,29.3600006 C22.4340361,29.3600006 21.5715361,29.658379 20.9949389,30.4043249 C20.2777861,31.1502709 19.9902861,31.8962168 19.9902861,32.9405412 C19.9902861,33.9848655 20.2777861,34.8800007 20.9949389,35.4767574 C21.4277861,35.924325 21.8574389,36.2227034 22.4340361,36.3718926 L20.1324389,43.2345954 C19.9902861,43.8313522 19.9902861,44.428109 20.4215361,45.0248657 C20.8527861,45.6216225 21.2840361,45.9200009 22.0027861,45.9200009 L25.1652862,45.9200009 C25.8840362,45.9200009 26.313689,45.6216225 26.7465362,45.0248657 C26.8902862,44.428109 26.8902862,43.8313522 26.7465362,43.2345954"/>
    </g>
  </g>
</svg>
